PathFileType	4	(X/Y/Z)	 s05c0402.trc
DataRate	CameraRate	NumFrames	NumMarkers	Units	OrigDataRate	OrigDataStartFrame	OrigNumFrames
200	200	4	50	mm	200	501	2000
Frame#	Time	racr			lacr			c7			jug			rlel			rdr			llel			ldr			s2			lic			ric			lasi			rasi			rpsi			lpsi			rgt			lgt			rth1			rth2			rth3			rth4			rlfc			rmfc			rsh1			rsh2			rsh3			rsh4			rlmal			rmmal			rcal			rtoe			rmt5			lth1			lth2			lth4			lth3			llfc			lmfc			lsh1			lsh2			lsh3			lsh4			llmal			lmmal			lcal			ltoe			lmt5			SBIKE			LBIKE			RBIKE			
		X1	Y1	Z1	X2	Y2	Z2	X3	Y3	Z3	X4	Y4	Z4	X5	Y5	Z5	X6	Y6	Z6	X7	Y7	Z7	X8	Y8	Z8	X9	Y9	Z9	X10	Y10	Z10	X11	Y11	Z11	X12	Y12	Z12	X13	Y13	Z13	X14	Y14	Z14	X15	Y15	Z15	X16	Y16	Z16	X17	Y17	Z17	X18	Y18	Z18	X19	Y19	Z19	X20	Y20	Z20	X21	Y21	Z21	X22	Y22	Z22	X23	Y23	Z23	X24	Y24	Z24	X25	Y25	Z25	X26	Y26	Z26	X27	Y27	Z27	X28	Y28	Z28	X29	Y29	Z29	X30	Y30	Z30	X31	Y31	Z31	X32	Y32	Z32	X33	Y33	Z33	X34	Y34	Z34	X35	Y35	Z35	X36	Y36	Z36	X37	Y37	Z37	X38	Y38	Z38	X39	Y39	Z39	X40	Y40	Z40	X41	Y41	Z41	X42	Y42	Z42	X43	Y43	Z43	X44	Y44	Z44	X45	Y45	Z45	X46	Y46	Z46	X47	Y47	Z47	X48	Y48	Z48	X49	Y49	Z49	X50	Y50	Z50	
501	2.5050	730.733183	1346.294771	-32.029725	742.295325	1362.751972	-329.068584	716.150788	1450.804152	-178.138117	675.614163	1288.826437	-184.500843	544.487897	1127.208436	65.024395	674.960012	968.604880	-61.937176	574.578089	1194.964032	-536.710574	685.977290	972.715608	-472.361791	155.406189	1283.623412	-270.080760	332.464318	1252.940391	-382.150590	267.272924	1303.621642	-111.850048	352.634293	1194.930655	-332.162422	309.067252	1234.946402	-124.292608	187.987126	1329.736089	-232.679740	210.845178	1317.364203	-313.421900	218.255336	1188.216070	-74.623636	231.818002	1157.727871	-406.263115	306.463554	1105.923114	-56.875078	384.191210	1064.085878	-50.109293	429.352748	988.086650	-49.669576	408.814180	1089.173060	-63.110677	525.907478	869.815253	-74.347393	522.242892	873.338530	-186.714840	432.913464	809.766960	-59.427913	384.388531	737.272678	-77.146705	309.529216	697.295533	-85.519385	407.212481	718.276669	-101.824571	215.310691	605.132781	-104.350876	242.029896	629.083725	-180.256020	137.433613	604.002630	-152.889839	396.520306	465.816297	-143.057132	294.141720	484.400153	-78.042606	260.670929	1021.675094	-417.878639	291.955865	943.328526	-406.031723	323.701499	946.705859	-386.525683	278.955351	853.250192	-407.315044	270.923834	707.828971	-383.619926	234.806026	697.596371	-281.940354	205.078055	602.815438	-428.152342	191.605925	516.636026	-420.785771	137.668737	446.916466	-431.490702	216.105871	506.343832	-392.892550	96.860550	330.905505	-433.870379	133.773234	349.382673	-361.622656	25.796669	329.686135	-396.539783	245.565999	130.625290	-390.394068	149.105356	177.905404	-456.266367	-258.303999	898.183453	-277.972187	-43.621183	85.848164	-474.614395	-51.917518	80.292784	-77.217546	
502	2.5100	728.875013	1341.659725	-32.742365	742.146976	1357.830071	-326.849033	715.757228	1447.135205	-176.279697	674.249946	1285.090377	-182.969506	542.079261	1124.488548	66.389064	674.243992	968.749692	-61.593957	573.775096	1194.127476	-537.304247	685.661381	972.724957	-472.416896	154.633683	1283.633903	-270.848468	331.764461	1253.532894	-383.734298	266.457808	1303.484194	-112.439016	351.862633	1194.700627	-332.632905	308.275327	1234.452130	-124.474510	187.323097	1329.806316	-233.087399	210.178238	1317.559608	-313.773793	216.809357	1187.812054	-75.238085	231.849293	1157.309527	-406.976903	304.609563	1104.565796	-57.338613	382.176857	1062.119973	-50.644955	426.522227	985.721274	-50.421369	406.905329	1087.043998	-63.316252	522.636375	866.722600	-75.338635	518.670955	870.547103	-187.485242	430.051469	805.371961	-60.497462	382.488298	732.243365	-78.461998	308.168424	691.343573	-86.938601	405.631153	713.782254	-103.291250	215.207622	599.074233	-105.069087	241.497567	623.095501	-181.730643	137.555615	594.415716	-155.145383	401.485503	466.622316	-142.557212	298.077771	481.299227	-78.137535	263.033350	1020.698677	-417.100867	295.564215	942.979819	-404.013259	327.139407	947.054426	-384.218043	284.299167	852.847029	-404.784964	279.429133	707.227426	-380.488938	241.429634	698.021438	-279.689905	210.272699	603.427453	-426.182318	193.926051	517.863366	-418.915553	137.877667	449.843814	-430.192581	217.804462	506.722072	-390.813428	93.117048	334.874091	-432.759999	129.890408	352.353229	-360.395065	22.017212	334.382551	-395.042834	239.445421	132.553940	-390.928230	143.200782	181.249495	-455.887514	-258.265495	898.208121	-278.053260	-43.622919	85.834645	-474.655093	-51.923567	80.297735	-77.225838	
503	2.5150	727.542280	1337.166772	-31.436045	741.861007	1352.992366	-324.668276	715.285043	1443.396635	-174.469255	672.809761	1281.176286	-181.590600	539.435475	1121.560763	67.637570	673.535334	968.981048	-61.130589	572.967118	1193.321461	-537.849312	685.379664	972.745612	-472.534459	153.880627	1283.371076	-271.707748	331.092006	1253.063272	-383.984047	265.438092	1302.675128	-112.665222	351.249299	1193.840831	-333.504922	307.561870	1233.817052	-124.656277	186.674112	1329.604064	-233.566365	209.395207	1317.416512	-314.009673	215.468323	1187.203506	-75.899109	232.003993	1156.492182	-407.725860	302.778245	1102.783048	-57.858796	379.815734	1059.637030	-50.985259	423.640427	982.860293	-51.436441	404.958885	1084.552367	-63.383960	519.242264	863.260101	-76.309301	514.183775	867.064482	-189.042324	426.976226	800.632238	-61.717095	380.540108	726.853901	-79.898138	306.826420	684.865801	-88.550686	404.054569	708.829214	-104.828964	215.131284	592.110469	-106.663550	241.342962	616.556190	-183.512866	137.921080	584.538668	-157.656219	406.705700	466.661024	-141.034715	301.697921	477.752687	-78.061995	265.447708	1019.678023	-416.189369	299.324817	942.732344	-402.151442	330.705049	947.581259	-382.377076	289.711608	852.402165	-401.930761	288.600622	706.760892	-377.387434	248.846466	698.483237	-277.550103	215.393021	604.269960	-423.905724	196.246241	519.338208	-417.087975	138.164907	453.193939	-428.790593	219.736503	507.402731	-388.969433	89.439834	338.849833	-431.371234	126.230039	355.456302	-359.121970	18.880777	339.396669	-392.940347	233.480603	134.508221	-391.784152	137.155407	184.739428	-455.413160	-258.248691	898.193960	-278.128491	-43.635112	85.823874	-474.674110	-51.939073	80.285843	-77.258653	
504	2.5200	726.195088	1332.515184	-30.150223	741.486671	1348.171960	-322.522231	714.730413	1439.492092	-172.669502	671.255232	1277.159589	-180.338978	536.689702	1118.734173	68.897824	672.868072	969.217375	-60.491229	572.113251	1192.575375	-538.483223	685.105945	972.785592	-472.743334	153.208453	1282.954900	-272.578227	330.280738	1252.532363	-384.156259	264.605671	1301.786054	-113.063077	350.573292	1193.179555	-334.090711	306.890560	1232.846197	-124.904530	186.044626	1329.122516	-234.031476	208.773263	1317.039657	-314.492819	214.215228	1186.281441	-76.520626	232.170332	1155.403286	-408.474364	301.015021	1100.677437	-58.706801	377.365863	1056.819866	-51.397720	420.660713	979.566451	-52.483309	403.079649	1081.519869	-63.610757	515.941753	859.434143	-77.425505	511.189606	863.464203	-189.517016	423.850971	795.777650	-63.007148	378.744344	721.238691	-81.435218	305.679447	677.943306	-90.445889	402.578729	703.749204	-106.376417	215.419051	584.829105	-108.666659	241.592462	609.538616	-185.595063	138.718614	574.685445	-160.152021	411.510873	466.290371	-140.062735	305.530751	474.067926	-78.260836	267.960180	1018.708297	-415.304159	303.225532	942.455479	-400.568258	334.512333	948.050124	-380.786042	295.281981	852.050182	-399.700300	297.590584	706.479836	-374.486635	257.132335	698.494892	-275.454281	220.265191	605.529263	-421.619572	198.598325	521.141476	-415.321934	138.532806	456.805885	-427.124429	221.874170	508.370127	-387.433175	86.503989	343.358937	-429.790807	122.799627	358.691962	-357.825344	16.310622	344.798913	-390.407919	227.535795	136.528588	-392.619924	131.287030	188.454349	-454.891344	-258.193315	898.175552	-278.115544	-43.644206	85.817752	-474.680188	-51.935991	80.267796	-77.267211	
